<mxfile host="app.diagrams.net" modified="2020-10-15T03:13:48.134Z" agent="5.0 (Macintosh; Intel Mac OS X 10_14_6) AppleWebKit/537.36 (KHTML, like Gecko) Chrome/85.0.4183.121 Safari/537.36" etag="ppsIqdARWO9WhcAnmrtD" version="13.7.9" type="github" pages="2">
  <diagram id="wyeh-DEslIX5HUMllB9E" name="用户登录">
    <mxGraphModel dx="1378" dy="803" grid="1" gridSize="10" guides="1" tooltips="1" connect="1" arrows="1" fold="1" page="1" pageScale="1" pageWidth="1169" pageHeight="1654" math="0" shadow="0">
      <root>
        <mxCell id="0" />
        <mxCell id="1" parent="0" />
        <mxCell id="dgVE0eAPtg8r2mzdLM1t-3" style="edgeStyle=orthogonalEdgeStyle;rounded=0;orthogonalLoop=1;jettySize=auto;html=1;entryX=1;entryY=0.5;entryDx=0;entryDy=0;exitX=0;exitY=0.5;exitDx=0;exitDy=0;" parent="1" source="dgVE0eAPtg8r2mzdLM1t-17" target="dgVE0eAPtg8r2mzdLM1t-2" edge="1">
          <mxGeometry relative="1" as="geometry">
            <mxPoint x="490" y="435" as="sourcePoint" />
          </mxGeometry>
        </mxCell>
        <mxCell id="dgVE0eAPtg8r2mzdLM1t-9" style="edgeStyle=orthogonalEdgeStyle;rounded=0;orthogonalLoop=1;jettySize=auto;html=1;exitX=0;exitY=0.5;exitDx=0;exitDy=0;entryX=1;entryY=0.5;entryDx=0;entryDy=0;" parent="1" source="dgVE0eAPtg8r2mzdLM1t-2" target="dgVE0eAPtg8r2mzdLM1t-5" edge="1">
          <mxGeometry relative="1" as="geometry" />
        </mxCell>
        <mxCell id="dgVE0eAPtg8r2mzdLM1t-10" style="edgeStyle=orthogonalEdgeStyle;rounded=0;orthogonalLoop=1;jettySize=auto;html=1;entryX=1;entryY=0.5;entryDx=0;entryDy=0;" parent="1" source="dgVE0eAPtg8r2mzdLM1t-2" target="dgVE0eAPtg8r2mzdLM1t-6" edge="1">
          <mxGeometry relative="1" as="geometry" />
        </mxCell>
        <mxCell id="dgVE0eAPtg8r2mzdLM1t-11" style="edgeStyle=orthogonalEdgeStyle;rounded=0;orthogonalLoop=1;jettySize=auto;html=1;entryX=1;entryY=0.5;entryDx=0;entryDy=0;" parent="1" source="dgVE0eAPtg8r2mzdLM1t-2" target="dgVE0eAPtg8r2mzdLM1t-7" edge="1">
          <mxGeometry relative="1" as="geometry" />
        </mxCell>
        <mxCell id="dgVE0eAPtg8r2mzdLM1t-12" style="edgeStyle=orthogonalEdgeStyle;rounded=0;orthogonalLoop=1;jettySize=auto;html=1;entryX=1;entryY=0.383;entryDx=0;entryDy=0;entryPerimeter=0;" parent="1" source="dgVE0eAPtg8r2mzdLM1t-2" target="dgVE0eAPtg8r2mzdLM1t-4" edge="1">
          <mxGeometry relative="1" as="geometry" />
        </mxCell>
        <mxCell id="dgVE0eAPtg8r2mzdLM1t-2" value="用户中心" style="rounded=1;whiteSpace=wrap;html=1;" parent="1" vertex="1">
          <mxGeometry x="280" y="405" width="120" height="60" as="geometry" />
        </mxCell>
        <mxCell id="dgVE0eAPtg8r2mzdLM1t-4" value="ACP" style="rounded=0;whiteSpace=wrap;html=1;" parent="1" vertex="1">
          <mxGeometry x="10" y="280" width="120" height="60" as="geometry" />
        </mxCell>
        <mxCell id="dgVE0eAPtg8r2mzdLM1t-5" value="非控股" style="rounded=0;whiteSpace=wrap;html=1;" parent="1" vertex="1">
          <mxGeometry x="10" y="520" width="120" height="60" as="geometry" />
        </mxCell>
        <mxCell id="dgVE0eAPtg8r2mzdLM1t-6" value="供应链" style="rounded=0;whiteSpace=wrap;html=1;" parent="1" vertex="1">
          <mxGeometry x="10" y="360" width="120" height="60" as="geometry" />
        </mxCell>
        <mxCell id="dgVE0eAPtg8r2mzdLM1t-7" value="教育集团" style="rounded=0;whiteSpace=wrap;html=1;" parent="1" vertex="1">
          <mxGeometry x="10" y="440" width="120" height="60" as="geometry" />
        </mxCell>
        <mxCell id="dgVE0eAPtg8r2mzdLM1t-13" value="同步" style="text;html=1;strokeColor=none;fillColor=none;align=center;verticalAlign=middle;whiteSpace=wrap;rounded=0;" parent="1" vertex="1">
          <mxGeometry x="220" y="410" width="40" height="20" as="geometry" />
        </mxCell>
        <mxCell id="dgVE0eAPtg8r2mzdLM1t-15" value="&lt;font style=&quot;font-size: 15px&quot;&gt;数据门户&lt;/font&gt;" style="text;html=1;strokeColor=none;fillColor=none;align=center;verticalAlign=middle;whiteSpace=wrap;rounded=0;" parent="1" vertex="1">
          <mxGeometry x="627.5" y="250" width="100" height="20" as="geometry" />
        </mxCell>
        <mxCell id="dgVE0eAPtg8r2mzdLM1t-17" value="" style="rounded=0;whiteSpace=wrap;html=1;" parent="1" vertex="1">
          <mxGeometry x="460" y="285" width="435" height="300" as="geometry" />
        </mxCell>
        <mxCell id="dgVE0eAPtg8r2mzdLM1t-19" value="" style="endArrow=none;html=1;exitX=0.002;exitY=0.15;exitDx=0;exitDy=0;exitPerimeter=0;" parent="1" source="dgVE0eAPtg8r2mzdLM1t-17" edge="1">
          <mxGeometry width="50" height="50" relative="1" as="geometry">
            <mxPoint x="470" y="330" as="sourcePoint" />
            <mxPoint x="890" y="327" as="targetPoint" />
          </mxGeometry>
        </mxCell>
      </root>
    </mxGraphModel>
  </diagram>
  <diagram id="avnWjNWjPU4aOX5KObkh" name="权限控制">
    <mxGraphModel dx="1378" dy="803" grid="1" gridSize="10" guides="1" tooltips="1" connect="1" arrows="1" fold="1" page="1" pageScale="1" pageWidth="1169" pageHeight="1654" math="0" shadow="0">
      <root>
        <mxCell id="OsziL55888v6D7ve3e-J-0" />
        <mxCell id="OsziL55888v6D7ve3e-J-1" parent="OsziL55888v6D7ve3e-J-0" />
        <mxCell id="OsziL55888v6D7ve3e-J-7" style="edgeStyle=orthogonalEdgeStyle;rounded=0;orthogonalLoop=1;jettySize=auto;html=1;entryX=1;entryY=0.5;entryDx=0;entryDy=0;" edge="1" parent="OsziL55888v6D7ve3e-J-1" source="OsziL55888v6D7ve3e-J-2" target="OsziL55888v6D7ve3e-J-3">
          <mxGeometry relative="1" as="geometry" />
        </mxCell>
        <mxCell id="OsziL55888v6D7ve3e-J-8" style="edgeStyle=orthogonalEdgeStyle;rounded=0;orthogonalLoop=1;jettySize=auto;html=1;exitX=1;exitY=0.5;exitDx=0;exitDy=0;entryX=0;entryY=0.5;entryDx=0;entryDy=0;" edge="1" parent="OsziL55888v6D7ve3e-J-1" source="OsziL55888v6D7ve3e-J-2" target="OsziL55888v6D7ve3e-J-5">
          <mxGeometry relative="1" as="geometry" />
        </mxCell>
        <mxCell id="OsziL55888v6D7ve3e-J-2" value="用户" style="ellipse;whiteSpace=wrap;html=1;aspect=fixed;" vertex="1" parent="OsziL55888v6D7ve3e-J-1">
          <mxGeometry x="480" y="320" width="80" height="80" as="geometry" />
        </mxCell>
        <mxCell id="OsziL55888v6D7ve3e-J-14" style="edgeStyle=orthogonalEdgeStyle;rounded=0;orthogonalLoop=1;jettySize=auto;html=1;exitX=0;exitY=0.5;exitDx=0;exitDy=0;entryX=1;entryY=0.5;entryDx=0;entryDy=0;" edge="1" parent="OsziL55888v6D7ve3e-J-1" source="OsziL55888v6D7ve3e-J-3" target="OsziL55888v6D7ve3e-J-4">
          <mxGeometry relative="1" as="geometry" />
        </mxCell>
        <mxCell id="OsziL55888v6D7ve3e-J-3" value="功能权限角色" style="rounded=1;whiteSpace=wrap;html=1;" vertex="1" parent="OsziL55888v6D7ve3e-J-1">
          <mxGeometry x="280" y="330" width="120" height="60" as="geometry" />
        </mxCell>
        <mxCell id="OsziL55888v6D7ve3e-J-4" value="功能权限" style="rounded=1;whiteSpace=wrap;html=1;" vertex="1" parent="OsziL55888v6D7ve3e-J-1">
          <mxGeometry x="80" y="330" width="120" height="60" as="geometry" />
        </mxCell>
        <mxCell id="OsziL55888v6D7ve3e-J-13" style="edgeStyle=orthogonalEdgeStyle;rounded=0;orthogonalLoop=1;jettySize=auto;html=1;entryX=0;entryY=0.5;entryDx=0;entryDy=0;" edge="1" parent="OsziL55888v6D7ve3e-J-1" source="OsziL55888v6D7ve3e-J-5" target="OsziL55888v6D7ve3e-J-6">
          <mxGeometry relative="1" as="geometry" />
        </mxCell>
        <mxCell id="OsziL55888v6D7ve3e-J-5" value="数据权限角色" style="rounded=1;whiteSpace=wrap;html=1;" vertex="1" parent="OsziL55888v6D7ve3e-J-1">
          <mxGeometry x="640" y="330" width="120" height="60" as="geometry" />
        </mxCell>
        <mxCell id="OsziL55888v6D7ve3e-J-6" value="数据权限" style="rounded=1;whiteSpace=wrap;html=1;" vertex="1" parent="OsziL55888v6D7ve3e-J-1">
          <mxGeometry x="840" y="330" width="120" height="60" as="geometry" />
        </mxCell>
        <mxCell id="OsziL55888v6D7ve3e-J-9" value="1" style="text;html=1;strokeColor=none;fillColor=none;align=center;verticalAlign=middle;whiteSpace=wrap;rounded=0;" vertex="1" parent="OsziL55888v6D7ve3e-J-1">
          <mxGeometry x="460" y="340" width="20" height="20" as="geometry" />
        </mxCell>
        <mxCell id="OsziL55888v6D7ve3e-J-10" value="N" style="text;html=1;strokeColor=none;fillColor=none;align=center;verticalAlign=middle;whiteSpace=wrap;rounded=0;" vertex="1" parent="OsziL55888v6D7ve3e-J-1">
          <mxGeometry x="400" y="340" width="30" height="20" as="geometry" />
        </mxCell>
        <mxCell id="OsziL55888v6D7ve3e-J-11" value="1" style="text;html=1;strokeColor=none;fillColor=none;align=center;verticalAlign=middle;whiteSpace=wrap;rounded=0;" vertex="1" parent="OsziL55888v6D7ve3e-J-1">
          <mxGeometry x="560" y="340" width="20" height="20" as="geometry" />
        </mxCell>
        <mxCell id="OsziL55888v6D7ve3e-J-12" value="N" style="text;html=1;strokeColor=none;fillColor=none;align=center;verticalAlign=middle;whiteSpace=wrap;rounded=0;" vertex="1" parent="OsziL55888v6D7ve3e-J-1">
          <mxGeometry x="610" y="340" width="20" height="20" as="geometry" />
        </mxCell>
      </root>
    </mxGraphModel>
  </diagram>
</mxfile>
